<?xml version="1.0" encoding="UTF-8" standalone="no"?>
<!-- Created with Inkscape (http://www.inkscape.org/) -->

<svg
   xmlns:dc="http://purl.org/dc/elements/1.1/"
   xmlns:cc="http://creativecommons.org/ns#"
   xmlns:rdf="http://www.w3.org/1999/02/22-rdf-syntax-ns#"
   xmlns:svg="http://www.w3.org/2000/svg"
   xmlns="http://www.w3.org/2000/svg"
   xmlns:sodipodi="http://sodipodi.sourceforge.net/DTD/sodipodi-0.dtd"
   xmlns:inkscape="http://www.inkscape.org/namespaces/inkscape"
   width="500.80179"
   height="125.60717"
   viewBox="0 0 500.80179 125.60717"
   id="svg9283"
   version="1.1"
   inkscape:version="0.91 r13725"
   sodipodi:docname="JazzVPN_wrong.svg">
  <defs
     id="defs9285" />
  <sodipodi:namedview
     id="base"
     pagecolor="#ffffff"
     bordercolor="#666666"
     borderopacity="1.0"
     inkscape:pageopacity="0.0"
     inkscape:pageshadow="2"
     inkscape:zoom="1.4"
     inkscape:cx="277.65842"
     inkscape:cy="-24.07444"
     inkscape:document-units="px"
     inkscape:current-layer="text4371"
     showgrid="false"
     units="px"
     inkscape:window-width="1707"
     inkscape:window-height="1004"
     inkscape:window-x="-8"
     inkscape:window-y="-8"
     inkscape:window-maximized="1"
     fit-margin-top="0"
     fit-margin-left="0"
     fit-margin-right="0"
     fit-margin-bottom="0" />
  <metadata
     id="metadata9288">
    <rdf:RDF>
      <cc:Work
         rdf:about="">
        <dc:format>image/svg+xml</dc:format>
        <dc:type
           rdf:resource="http://purl.org/dc/dcmitype/StillImage" />
        <dc:title />
      </cc:Work>
    </rdf:RDF>
  </metadata>
  <g
     inkscape:label="Layer 1"
     inkscape:groupmode="layer"
     id="layer1"
     transform="translate(-0.33279501,-904.447)">
    <g
       id="g6405"
       transform="matrix(1.1986959,0,0,1.1986959,-4.3450175,-177.47175)">
      <g
         id="g4167"
         transform="matrix(0.82614985,0,0,0.82614985,85.770912,159.8143)">
        <g
           transform="matrix(3.3369598,0,0,3.3369598,3.7707002,-2485.926)"
           id="g4142">
          <circle
             style="fill:#fa8585;fill-opacity:1;stroke:#ffffff;stroke-width:0.16656539;stroke-linecap:round;stroke-linejoin:round;stroke-miterlimit:4;stroke-dasharray:none;stroke-dashoffset:0"
             id="path9835"
             cx="5.4309864"
             cy="1032.6202"
             r="1.6066524" />
          <circle
             style="fill:#fa8585;fill-opacity:1;stroke:#ffffff;stroke-width:0.16656539;stroke-linecap:round;stroke-linejoin:round;stroke-miterlimit:4;stroke-dasharray:none;stroke-dashoffset:0"
             id="path9837"
             cx="12.191618"
             cy="1030.5364"
             r="2.2120576" />
          <circle
             style="fill:#fa8585;fill-opacity:1;stroke:#ffffff;stroke-width:0.16656539;stroke-linecap:round;stroke-linejoin:round;stroke-miterlimit:4;stroke-dasharray:none;stroke-dashoffset:0"
             id="path9839"
             cx="6.9798355"
             cy="1025.4641"
             r="3.4927227" />
          <g
             id="g9876"
             transform="matrix(1.1709642,0,0,0.99728631,-0.06191686,2.812543)">
            <path
               sodipodi:nodetypes="ccsscccsccccccscccc"
               inkscape:connector-curvature="0"
               id="path9833"
               d="m 0.79730764,1035.2049 13.55176336,0 c 0,0 0.605405,0.5588 -0.651975,1.3504 -1.25738,0.7917 -2.864033,1.2575 -2.864033,2.8641 0,1.6066 -1.0822947,6.2525 0.349273,6.6361 1.431569,0.3837 5.099374,0.5822 7.171724,-0.1863 1.916356,-2.02 -3.294263,-18.091 -4.470685,-22.3999 0,0 -0.871897,-2.5442 0.681723,-2.5442 1.55362,0 8.492495,0.03 8.492495,0.03 l 0.139709,1.6766 c -1.944703,0.3717 -4.830807,0.01 -4.982951,1.1174 -0.93139,0.978 8.475673,24.5887 8.475673,24.5887 0,0 0.698544,2.8873 -2.654468,3.353 -3.353014,0.4657 -18.3950064,0.093 -18.3950064,0.093 0,0 -0.884823,-0.3725 -2.0956335,-2.3284 -1.2108105,-1.956 0.4191268,-10.0126 0.4191268,-10.0126 0,0 -0.5588358,-1.6765 -2.2353425,-2.7009 -1.6765069,-1.0246 -0.97796244,-1.4903 -0.97796244,-1.4903 z"
               style="fill:#f3d70c;fill-opacity:1;fill-rule:evenodd;stroke:#792552;stroke-width:1.04315984px;stroke-linecap:butt;stroke-linejoin:miter;stroke-opacity:1" />
            <path
               inkscape:connector-curvature="0"
               id="path9841"
               d="m 13.510818,1026.636 2.794179,0"
               style="fill:none;fill-rule:evenodd;stroke:#792552;stroke-width:1.04315984px;stroke-linecap:butt;stroke-linejoin:miter;stroke-opacity:1" />
            <path
               style="fill:none;fill-rule:evenodd;stroke:#792552;stroke-width:1.04315984px;stroke-linecap:butt;stroke-linejoin:miter;stroke-opacity:1"
               d="m 14.349071,1030.2684 2.794179,0"
               id="path9843"
               inkscape:connector-curvature="0" />
            <path
               inkscape:connector-curvature="0"
               id="path9845"
               d="m 15.233893,1033.7145 2.794178,0"
               style="fill:none;fill-rule:evenodd;stroke:#792552;stroke-width:1.04315984px;stroke-linecap:butt;stroke-linejoin:miter;stroke-opacity:1" />
            <path
               inkscape:connector-curvature="0"
               id="path9847"
               d="m 23.150732,1020.9546 -5.960914,0 1.253589,2.1712 4.707325,-0.5879 z"
               style="fill:#fa8585;fill-opacity:1;fill-rule:evenodd;stroke:#792552;stroke-width:1.04315984px;stroke-linecap:butt;stroke-linejoin:miter;stroke-opacity:1" />
          </g>
        </g>
        <g
           transform="translate(-7.7465137,0)"
           id="g6411">
          <g
             style="font-style:normal;font-weight:normal;font-size:20px;line-height:125%;font-family:sans-serif;letter-spacing:0px;word-spacing:0px;fill:#000000;fill-opacity:1;stroke:none;stroke-width:1px;stroke-linecap:butt;stroke-linejoin:miter;stroke-opacity:1"
             id="text4371">
            <path
               d="m 145.74219,989.60191 q 0,5.27347 -1.25,8.55474 -1.21095,3.28125 -4.14065,5.54695 -2.89065,2.2656 -8.12505,3.8672 l -1.28907,-3.4375 q 3.43752,-1.3282 4.88284,-2.6954 1.44532,-1.3281 1.9922,-3.35937 0.58594,-2.03127 0.58594,-5.46879 l 0,-43.90651 q 0,-3.39846 -0.35157,-4.64847 -0.3125,-1.25001 -1.09375,-1.91407 -0.74219,-0.66407 -3.12502,-1.28908 l 0,-1.91407 16.48447,0 0,1.91407 q -1.71876,0.4297 -2.50001,0.85939 -0.74219,0.42969 -1.21095,1.09375 -0.42969,0.62501 -0.66406,1.91408 -0.19532,1.28907 -0.19532,3.9844 l 0,40.89868 z"
               style="font-style:normal;font-variant:normal;font-weight:normal;font-stretch:normal;font-size:80.00048828px;line-height:125%;font-family:Cambria;-inkscape-font-specification:'Cambria, Normal';text-align:start;writing-mode:lr-tb;text-anchor:start"
               id="path4476" />
            <path
               d="m 180.70334,986.67221 -0.58594,-0.15625 q -3.39846,3.47658 -6.40629,4.9219 -2.96877,1.44532 -6.32816,1.44532 -2.96877,0 -5.23441,-1.13282 -2.26564,-1.17188 -3.47658,-3.2422 -1.21095,-2.10939 -1.21095,-4.84378 0,-5.70316 5.62504,-8.78912 5.6641,-3.12502 16.95323,-3.63283 l 0,-2.53908 q 0,-4.06253 -0.78126,-6.40629 -0.78125,-2.34377 -2.46095,-3.43752 -1.6797,-1.09376 -4.49222,-1.09376 -3.04689,0 -4.9219,1.60157 -1.83595,1.60158 -2.77346,4.80472 l -5.11721,0 0,-5.07816 q 3.75002,-1.95313 6.25003,-2.85158 2.50002,-0.9375 5.00003,-1.44532 2.50002,-0.54688 5.07816,-0.54688 3.86721,0 6.21098,1.25001 2.34376,1.21095 3.51564,3.75002 1.17188,2.53908 1.17188,7.6563 l 0,13.59383 q 0,2.89065 0.0391,4.10159 0.0391,1.17188 0.23437,2.18752 0.19532,1.01563 0.58595,1.64063 0.39062,0.58594 1.13281,1.01563 0.78126,0.42969 2.50002,0.89844 l 0,1.91408 -10.70319,0 0.19531,-5.58597 z m -0.66406,-12.22664 q -7.92974,0.0781 -11.87508,2.10939 -3.94533,2.03126 -3.94533,6.13285 0,2.22657 0.89844,3.51564 0.89844,1.28907 2.26564,1.79689 1.3672,0.46875 3.24221,0.46875 2.65626,0 4.80471,-1.28907 2.18752,-1.28907 3.39846,-3.28127 1.21095,-1.9922 1.21095,-3.94533 l 0,-5.50785 z"
               style="font-style:normal;font-variant:normal;font-weight:normal;font-stretch:normal;font-size:80.00048828px;line-height:125%;font-family:Cambria;-inkscape-font-specification:'Cambria, Normal';text-align:start;writing-mode:lr-tb;text-anchor:start"
               id="path4478" />
            <path
               d="m 226.64112,980.92998 0,11.3282 -30.07831,0 0,-1.91408 21.40638,-32.26582 -10.586,0 q -1.95314,0 -3.08595,0.70313 -1.13282,0.70313 -2.14846,2.34377 -1.01563,1.64063 -1.95313,4.41409 l -3.39846,0 0,-10.62507 29.60956,0 0,1.95314 -21.36732,32.22676 10.2735,0 q 2.03126,0 3.04689,-0.31251 1.01563,-0.3125 1.75782,-0.97656 0.7422,-0.70313 1.44533,-2.18752 0.70312,-1.48438 1.67969,-4.68753 l 3.39846,0 z"
               style="font-style:normal;font-variant:normal;font-weight:normal;font-stretch:normal;font-size:80.00048828px;line-height:125%;font-family:Cambria;-inkscape-font-specification:'Cambria, Normal';text-align:start;writing-mode:lr-tb;text-anchor:start"
               id="path4480" />
            <path
               d="m 263.0476,980.92998 0,11.3282 -30.07831,0 0,-1.91408 21.40638,-32.26582 -10.586,0 q -1.95314,0 -3.08596,0.70313 -1.13282,0.70313 -2.14845,2.34377 -1.01563,1.64063 -1.95314,4.41409 l -3.39846,0 0,-10.62507 29.60956,0 0,1.95314 -21.36732,32.22676 10.2735,0 q 2.03126,0 3.0469,-0.31251 1.01563,-0.3125 1.75782,-0.97656 0.74219,-0.70313 1.44532,-2.18752 0.70313,-1.48438 1.6797,-4.68753 l 3.39846,0 z"
               style="font-style:normal;font-variant:normal;font-weight:normal;font-stretch:normal;font-size:80.00048828px;line-height:125%;font-family:Cambria;-inkscape-font-specification:'Cambria, Normal';text-align:start;writing-mode:lr-tb;text-anchor:start"
               id="path4482" />
          </g>
          <g
             style="font-style:normal;font-weight:normal;font-size:20px;line-height:125%;font-family:sans-serif;letter-spacing:0px;word-spacing:0px;fill:#000000;fill-opacity:1;stroke:none;stroke-width:1px;stroke-linecap:butt;stroke-linejoin:miter;stroke-opacity:1"
             id="text4375">
            <path
               d="m 300.44905,951.41241 q 0.58594,-1.64063 0.89844,-3.08595 0.35157,-1.44533 0.35157,-3.0469 0,-1.91407 -1.01564,-2.9297 -0.97656,-1.01564 -3.04689,-1.17189 l 0,-2.57814 16.83604,0 0,2.57814 q -1.48438,0.23438 -2.53908,0.97657 -1.01563,0.70313 -1.87501,2.07033 -0.82032,1.32813 -1.95314,4.37502 l -16.36728,43.59402 -9.0235,0 -12.8907,-43.75027 q -0.85938,-2.9297 -1.44532,-4.14065 -0.58594,-1.25 -1.52345,-1.9922 -0.9375,-0.78125 -2.6172,-1.13282 l 0,-2.57814 21.60169,0 0,2.57814 q -2.03126,0.23438 -3.00783,1.13282 -0.97657,0.89845 -0.97657,2.53908 0,1.28907 0.23438,2.53908 0.23438,1.21094 0.97657,3.90627 l 7.73442,28.04705 9.6485,-27.92986 z"
               style="font-style:normal;font-variant:normal;font-weight:bold;font-stretch:normal;font-size:80.00048828px;line-height:125%;font-family:Cambria;-inkscape-font-specification:'Cambria, Bold';text-align:start;writing-mode:lr-tb;text-anchor:start"
               id="path4485" />
            <path
               d="m 334.23832,982.15479 q 0,2.57814 0.19531,3.67189 0.19531,1.0547 0.625,1.71876 0.46876,0.62501 1.28907,1.0547 0.85938,0.42969 2.61721,0.74219 l 0,2.57814 -21.01576,0 0,-2.57814 q 1.44533,-0.39063 2.26564,-0.82032 0.85938,-0.46875 1.25001,-1.25 0.42969,-0.82032 0.54688,-2.03127 0.11719,-1.25 0.11719,-3.12502 l 0,-33.67208 q 0,-1.83595 -0.11719,-3.08595 -0.0781,-1.25001 -0.50782,-2.03127 -0.39062,-0.78125 -1.25,-1.25 -0.82032,-0.50782 -2.30471,-0.89845 l 0,-2.57814 22.69545,0 q 9.88288,0 14.80478,3.55471 4.92191,3.51565 4.92191,10.85944 0,5.19535 -2.3047,9.0235 -2.30471,3.82814 -6.67973,5.82034 -4.37503,1.95314 -10.93757,1.95314 -3.78908,0 -6.21097,-0.15625 l 0,12.50008 z m 0,-16.91417 3.35939,0 q 3.90628,0 6.21098,-1.09376 2.3047,-1.13282 3.39845,-3.55471 1.13282,-2.42188 1.13282,-6.52347 0,-4.06253 -1.13282,-6.44535 -1.09375,-2.42189 -3.2422,-3.43753 -2.14845,-1.01563 -5.50785,-1.01563 -2.73439,0 -4.21877,0.0781 l 0,21.99232 z"
               style="font-style:normal;font-variant:normal;font-weight:bold;font-stretch:normal;font-size:80.00048828px;line-height:125%;font-family:Cambria;-inkscape-font-specification:'Cambria, Bold';text-align:start;writing-mode:lr-tb;text-anchor:start"
               id="path4487" />
            <path
               d="m 414.35599,938.59983 0,2.57814 q -1.56251,0.50782 -2.22657,0.85938 -0.62501,0.35157 -1.09376,0.93751 -0.42969,0.58594 -0.66407,1.79689 -0.23437,1.17188 -0.23437,3.63283 l 0,43.51589 -9.92194,0 -17.57823,-30.39081 q -3.55471,-6.17191 -5.23441,-9.68756 l -0.35156,0 q 0.39063,8.39849 0.39063,17.73448 l 0,12.57821 q 0,2.9297 0.27344,4.10158 0.3125,1.17189 1.05469,1.87502 0.78125,0.66406 2.89064,1.21094 l 0,2.57814 -14.76571,0 0,-2.57814 q 1.44532,-0.39063 2.26564,-0.85938 0.85938,-0.46875 1.25,-1.25001 0.42969,-0.82031 0.54688,-2.03126 0.11719,-1.21094 0.11719,-3.04689 l 0,-33.78927 q 0,-2.92971 -0.27344,-4.02346 -0.23438,-1.13282 -1.05469,-1.87502 -0.78126,-0.74219 -2.85158,-1.28907 l 0,-2.57814 15.82041,0 13.82821,24.02359 q 1.28907,2.26564 3.35939,6.13285 2.07033,3.86721 3.6719,7.30473 l 0.625,0 q -0.42969,-9.336 -0.42969,-20.39075 l 0,-7.26567 q 0,-2.53908 -0.19531,-3.6719 -0.19532,-1.13282 -0.62501,-1.71876 -0.39062,-0.58594 -1.09375,-0.97657 -0.66407,-0.39062 -2.26564,-0.85938 l 0,-2.57814 14.76571,0 z"
               style="font-style:normal;font-variant:normal;font-weight:bold;font-stretch:normal;font-size:80.00048828px;line-height:125%;font-family:Cambria;-inkscape-font-specification:'Cambria, Bold';text-align:start;writing-mode:lr-tb;text-anchor:start"
               id="path4489" />
          </g>
        </g>
      </g>
    </g>
  </g>
</svg>
